<svg width="1637" height="1635" xmlns="http://www.w3.org/2000/svg" xmlns:xlink="http://www.w3.org/1999/xlink" xml:space="preserve" overflow="hidden"><defs><filter id="fx0" x="-10%" y="-10%" width="120%" height="120%" filterUnits="userSpaceOnUse" primitiveUnits="userSpaceOnUse"><feComponentTransfer color-interpolation-filters="sRGB"><feFuncR type="discrete" tableValues="0 0"/><feFuncG type="discrete" tableValues="0 0"/><feFuncB type="discrete" tableValues="0 0"/><feFuncA type="linear" slope="0.4" intercept="0"/></feComponentTransfer><feGaussianBlur stdDeviation="6.11111 6.11111"/></filter><linearGradient x1="2525.63" y1="1058.5" x2="3556.75" y2="1058.5" gradientUnits="userSpaceOnUse" spreadMethod="reflect" id="stroke1"><stop offset="0" stop-color="#FF0000"/><stop offset="0.55" stop-color="#FF0000"/><stop offset="0.79" stop-color="#2577BB"/><stop offset="1" stop-color="#2577BB"/></linearGradient></defs><g transform="translate(-2525 -158)"><rect x="2529.5" y="160.5" width="1630" height="1630" stroke="#FFFFFF" stroke-width="4.58333" stroke-miterlimit="8" fill="none"/><rect x="2824" y="1470" width="1054" height="91.0001" fill="#FFFFFF"/><g filter="url(#fx0)" transform="translate(2684 258)"><g><rect x="46.7229" y="46.7227" width="1257" height="1373" stroke="#000000" stroke-width="54" stroke-miterlimit="8" fill="none"/></g></g><rect x="2721" y="295" width="1257" height="1373" stroke="#000000" stroke-width="53.8542" stroke-miterlimit="8" fill="none"/><path d="M2540 1258.13C2571.46 1260.62 2602.93 1263.1 2628.29 1258.13 2653.66 1253.16 2670.7 1246.09 2692.19 1228.31 2713.68 1210.53 2730.91 1200.21 2757.25 1151.46 2783.58 1102.71 2830.05 980.846 2850.19 935.827 2870.32 890.808 2864.13 901.8 2878.07 881.345 2892.01 860.89 2921.63 851.81 2940.8 857.832 2959.97 863.854 2976.62 875.037 2993.08 917.475 3009.54 959.913 3016.7 1010.38 3029.1 1047.08 3041.49 1083.79 3045.75 1110.55 3067.43 1137.7 3089.12 1164.84 3115.45 1181.66 3145.27 1154.9 3175.09 1128.14 3218.85 1011.62 3246.34 977.119 3273.84 942.613 3302.3 914.417 3376.46 999.485 3410.34 1038.67 3473.56 1128.62 3524 1180.14" stroke="url(#stroke1)" stroke-width="91.6667" stroke-miterlimit="8" fill="none" fill-rule="evenodd"/><path d="M3854.4 1040.65 3997.59 1179.93 3967.6 1210.76 3824.41 1071.48Z" stroke="#2577BB" stroke-width="41.25" stroke-miterlimit="8" fill="#2577BB" fill-rule="evenodd"/><path d="M3801.69 1047.67 3941.35 904.862 3972.1 934.934 3832.44 1077.75Z" stroke="#2577BB" stroke-width="41.25" stroke-miterlimit="8" fill="#2577BB" fill-rule="evenodd"/><path d="M3465 783C3465 719.487 3516.71 668 3580.5 668 3644.29 668 3696 719.487 3696 783 3696 846.513 3644.29 898 3580.5 898 3516.71 898 3465 846.513 3465 783Z" fill="#2577BB" fill-rule="evenodd"/><path d="M3895 850.5C3895 785.606 3947.83 733 4013 733 4078.17 733 4131 785.606 4131 850.5 4131 915.393 4078.17 968 4013 968 3947.83 968 3895 915.393 3895 850.5Z" fill="#2577BB" fill-rule="evenodd"/><path d="M3911 1230C3911 1165.38 3963.61 1113 4028.5 1113 4093.39 1113 4146 1165.38 4146 1230 4146 1294.62 4093.39 1347 4028.5 1347 3963.61 1347 3911 1294.62 3911 1230Z" fill="#2577BB" fill-rule="evenodd"/><path d="M3698 1053.5C3698 988.607 3750.38 936 3815 936 3879.62 936 3932 988.607 3932 1053.5 3932 1118.39 3879.62 1171 3815 1171 3750.38 1171 3698 1118.39 3698 1053.5Z" fill="#2577BB" fill-rule="evenodd"/><path d="M3395 1151.5C3395 1086.61 3447.61 1034 3512.5 1034 3577.39 1034 3630 1086.61 3630 1151.5 3630 1216.39 3577.39 1269 3512.5 1269 3447.61 1269 3395 1216.39 3395 1151.5Z" fill="#2577BB" fill-rule="evenodd"/><path d="M3614.71 798.763 3837.71 1047.91 3805.67 1076.6 3582.66 827.449Z" stroke="#2577BB" stroke-width="41.25" stroke-miterlimit="8" fill="#2577BB" fill-rule="evenodd"/><path d="M3371.26 972.156 3540.13 804.499 3570.43 835.021 3401.57 1002.68Z" stroke="#2577BB" stroke-width="41.25" stroke-miterlimit="8" fill="#2577BB" fill-rule="evenodd"/><path d="M3616.89 784.866 3839.89 1034.02 3807.85 1062.7 3584.84 813.552Z" stroke="#2577BB" stroke-width="41.25" stroke-miterlimit="8" fill="#2577BB" fill-rule="evenodd"/></g></svg>