<svg width="1534" height="1218" xmlns="http://www.w3.org/2000/svg" xmlns:xlink="http://www.w3.org/1999/xlink" xml:space="preserve" overflow="hidden"><defs><filter id="fx0" x="-10%" y="-10%" width="120%" height="120%" filterUnits="userSpaceOnUse" primitiveUnits="userSpaceOnUse"><feComponentTransfer color-interpolation-filters="sRGB"><feFuncR type="discrete" tableValues="0 0"/><feFuncG type="discrete" tableValues="0 0"/><feFuncB type="discrete" tableValues="0 0"/><feFuncA type="linear" slope="0.4" intercept="0"/></feComponentTransfer><feGaussianBlur stdDeviation="6.11111 6.11111"/></filter><clipPath id="clip1"><rect x="523" y="432" width="1534" height="1218"/></clipPath><linearGradient x1="523.653" y1="1108.5" x2="1525.27" y2="1108.5" gradientUnits="userSpaceOnUse" spreadMethod="reflect" id="stroke2"><stop offset="0" stop-color="#FF0000"/><stop offset="0.55" stop-color="#FF0000"/><stop offset="0.79" stop-color="#2577BB"/><stop offset="1" stop-color="#2577BB"/></linearGradient></defs><g clip-path="url(#clip1)" transform="translate(-523 -432)"><rect x="1786" y="453" width="78" height="1152" fill="#E2F0D9"/><rect x="809" y="455" width="790" height="1153" fill="#A9D18E"/><rect x="1599" y="455" width="187" height="1150" fill="#C5E0B4"/><rect x="808" y="1297" width="978" height="222" fill="#C5E0B4"/><rect x="809" y="1519" width="1054" height="91.0001" fill="#E2F0D9"/><g filter="url(#fx0)" transform="translate(784 431)"><g><rect x="26.7227" y="26.7226" width="1067" height="1166" stroke="#000000" stroke-width="14" stroke-miterlimit="8" fill="none"/></g></g><rect x="801" y="448" width="1067" height="1166" stroke="#000000" stroke-width="13.75" stroke-miterlimit="8" fill="none"/><path d="M525.5 1307.64C556.932 1310.12 588.364 1312.6 613.703 1307.64 639.042 1302.68 656.064 1295.62 677.534 1277.89 699.005 1260.15 716.22 1249.86 742.526 1201.23 768.832 1152.6 815.255 1031.04 835.371 986.13 855.488 941.222 849.298 952.187 863.225 931.782 877.152 911.378 906.746 902.32 925.896 908.327 945.045 914.334 961.679 925.49 978.121 967.823 994.563 1010.16 1001.72 1060.5 1014.1 1097.11 1026.48 1133.73 1030.73 1160.42 1052.4 1187.5 1074.06 1214.58 1100.37 1231.36 1130.16 1204.66 1159.94 1177.97 1203.66 1061.74 1231.12 1027.32 1258.59 992.899 1287.03 964.773 1361.11 1049.63 1394.96 1088.72 1458.11 1178.44 1508.5 1229.83" stroke="url(#stroke2)" stroke-width="46.9792" stroke-miterlimit="8" fill="none" fill-rule="evenodd"/><path d="M1839.2 1090.02 1982.38 1229.3 1952.39 1260.13 1809.21 1120.86Z" fill="#2577BB" fill-rule="evenodd"/><path d="M1786.49 1097.05 1926.14 954.237 1956.9 984.309 1817.24 1127.12Z" fill="#2577BB" fill-rule="evenodd"/><path d="M1493 832C1493 792.236 1525.24 760 1565 760 1604.76 760 1637 792.236 1637 832 1637 871.765 1604.76 904 1565 904 1525.24 904 1493 871.765 1493 832Z" fill="#2577BB" fill-rule="evenodd"/><path d="M1900 949.5C1900 908.907 1932.91 876 1973.5 876 2014.09 876 2047 908.907 2047 949.5 2047 990.093 2014.09 1023 1973.5 1023 1932.91 1023 1900 990.093 1900 949.5Z" fill="#2577BB" fill-rule="evenodd"/><path d="M1911 1247.5C1911 1206.91 1943.68 1174 1984 1174 2024.32 1174 2057 1206.91 2057 1247.5 2057 1288.09 2024.32 1321 1984 1321 1943.68 1321 1911 1288.09 1911 1247.5Z" fill="#2577BB" fill-rule="evenodd"/><path d="M1726 1102.5C1726 1061.91 1758.91 1029 1799.5 1029 1840.09 1029 1873 1061.91 1873 1102.5 1873 1143.09 1840.09 1176 1799.5 1176 1758.91 1176 1726 1143.09 1726 1102.5Z" fill="#2577BB" fill-rule="evenodd"/><path d="M1484 1269.5C1484 1228.91 1516.68 1196 1557 1196 1597.32 1196 1630 1228.91 1630 1269.5 1630 1310.09 1597.32 1343 1557 1343 1516.68 1343 1484 1310.09 1484 1269.5Z" fill="#2577BB" fill-rule="evenodd"/><path d="M1599.5 848.138 1822.51 1097.29 1790.46 1125.98 1567.45 876.824Z" fill="#2577BB" fill-rule="evenodd"/><path d="M1356.06 1021.53 1524.92 853.874 1555.23 884.396 1386.36 1052.05Z" fill="#2577BB" fill-rule="evenodd"/></g></svg>