<?xml version="1.0" encoding="UTF-8" standalone="no"?>
<svg
   version="1.1"
   width="748.94989"
   height="461.02417"
   id="svg19"
   xmlns:xlink="http://www.w3.org/1999/xlink"
   xmlns="http://www.w3.org/2000/svg"
   xmlns:svg="http://www.w3.org/2000/svg">
  <defs
     id="defs19">
    <linearGradient
       id="linearGradient20">
      <stop
         style="stop-color:#fe0101;stop-opacity:1;"
         offset="0.39082569"
         id="stop20" />
      <stop
         style="stop-color:#2778bb;stop-opacity:1;"
         offset="0.53394496"
         id="stop21" />
    </linearGradient>
    <linearGradient
       xlink:href="#linearGradient20"
       id="linearGradient21"
       x1="-487.46539"
       y1="128.35973"
       x2="207.93217"
       y2="128.35973"
       gradientUnits="userSpaceOnUse" />
  </defs>
  <g
     id="g21"
     transform="translate(-49.491722,0.50952029)">
    <path
       d="M 0,0 C 0.84774968,-0.00235223 1.6954994,-0.00470446 2.5689384,-0.00712797 5.4227927,-0.01380944 8.2766013,-0.01336 11.130463,-0.01294994 c 2.061576,-0.0032992 4.123151,-0.0070248 6.184725,-0.01114148 5.675795,-0.01002226 11.351579,-0.01373716 17.027382,-0.01638931 6.117468,-0.0039024 12.234928,-0.01348077 18.352392,-0.02221287 14.080372,-0.0188319 28.160743,-0.02902078 42.241125,-0.03746068 6.959663,-0.004208 13.919313,-0.00943 20.878973,-0.0146845 23.82856,-0.0178901 47.65711,-0.0328854 71.48568,-0.0403202 1.49578,-4.7475e-4 2.99157,-9.5064e-4 4.48735,-0.001428 1.11265,-3.5456e-4 1.11265,-3.5456e-4 2.24778,-7.1629e-4 3.75809,-0.001201 7.51619,-0.002417 11.27428,-0.003642 0.7458,-2.4015e-4 1.4916,-4.803e-4 2.26001,-7.2773e-4 24.17514,-0.007891 48.35024,-0.0313192 72.52537,-0.0638282 25.56531,-0.0343156 51.1306,-0.0540109 76.69593,-0.0573024 2.80781,-4.1753e-4 5.61561,-8.9709e-4 8.42341,-0.001423 0.69135,-1.2319e-4 1.3827,-2.4638e-4 2.095,-3.7331e-4 11.1152,-0.00233 22.23034,-0.0179783 33.34552,-0.0384685 11.17818,-0.0202791 22.35629,-0.0253926 33.53449,-0.0162294 6.05322,0.004546 12.10624,0.002638 18.15943,-0.0167614 5.54569,-0.0176198 11.09105,-0.0166433 16.63674,-0.001103 2.0021,0.002378 4.00421,-0.001957 6.00627,-0.0138286 14.91628,-0.0829463 27.41197,0.94764769 39.60445,10.50521181 0.6252,0.462774 1.25039,0.925547 1.89453,1.402344 8.10318,6.373084 14.0563,16.481006 16.10547,26.597656 0.0825,2.085343 0.10742,4.173211 0.0977,6.260162 -0.003,1.286827 -0.006,2.573654 -0.01,3.899476 -0.008,1.424163 -0.0169,2.848327 -0.0254,4.272491 -0.005,1.501585 -0.01,3.003172 -0.0138,4.504761 -0.009,3.233526 -0.0204,6.467035 -0.0328,9.70055 -0.018,5.119435 -0.0199,10.238795 -0.0176,15.358257 3.7e-4,0.864698 7.4e-4,1.729397 10e-4,2.620298 10e-4,2.663158 0.003,5.326316 0.005,7.989474 0.007,11.02152 0.002,22.04257 -0.0552,33.06396 -0.0415,8.04063 -0.0512,16.08059 -0.0239,24.12129 0.0132,4.25187 0.0105,8.50236 -0.031,12.75407 -0.0388,4.00456 -0.0351,8.00691 1.2e-4,12.01149 0.006,1.46325 -0.004,2.92666 -0.0307,4.38969 -0.13129,7.72588 0.28041,12.94357 5.4312,18.94572 2.9177,2.93825 4.92456,4.6256 9.09229,5.04972 2.15757,-0.0855 2.15757,-0.0855 4.30078,-0.37891 4.94069,-0.36712 9.42111,-0.61781 14.3125,0.4375 -0.0464,-0.825 -0.0928,-1.65 -0.14062,-2.5 -0.53752,-17.20055 4.07524,-32.70618 15.57812,-45.875 1.50203,-1.55999 3.02182,-3.10317 4.5625,-4.625 0.61359,-0.63551 1.22719,-1.27101 1.85938,-1.92578 12.63329,-12.17439 30.11088,-16.26339 47.14062,-16.07422 17.98393,1.09537 33.19116,9.2282 45.49219,22.125 12.95126,14.84755 16.60392,32.60694 15.50781,51.875 -1.92152,16.14783 -10.46635,30.81468 -22.73437,41.34766 -15.55545,11.75447 -32.29957,16.2143 -51.72657,14.42578 -1.5194,-0.21706 -3.03134,-0.48625 -4.53906,-0.77344 0.33,2.97 0.66,5.94 1,9 1.32,-0.33 2.64,-0.66 4,-1 17.97585,-3.4939 35.75602,-0.18939 51,10 3.57319,2.7903 6.81584,5.77639 10,9 0.63551,0.61359 1.27102,1.22719 1.92578,1.85938 10.88218,11.29236 15.67611,27.07364 15.51172,42.45312 -0.0114,1.50385 -0.0114,1.50385 -0.023,3.03809 -0.38566,17.4589 -7.30221,32.09122 -19.41455,44.64941 -6.95851,6.12197 -14.2811,10.83738 -23,14 -0.87527,0.3184 -1.75055,0.6368 -2.65234,0.96484 -17.28291,5.26002 -35.55548,2.48439 -51.40698,-5.50244 -14.15346,-7.63405 -24.53964,-20.34741 -29.94068,-35.4624 -2.37696,-8.36233 -3.47841,-16.31777 -3,-25 -1.09312,0.32484 -2.18625,0.64969 -3.3125,0.98438 -5.23303,1.30365 -10.31987,1.3095 -15.6875,1.26562 -0.94617,0.008 -1.89234,0.0155 -2.86719,0.0234 -0.9307,-0.003 -1.8614,-0.005 -2.82031,-0.008 -0.82887,-0.002 -1.65773,-0.005 -2.51172,-0.007 -3.7342,-0.34504 -7.168,-1.32439 -10.80078,-2.25879 0.009,1.13846 0.0178,2.27693 0.0269,3.44989 0.0814,10.76842 0.14117,21.53679 0.18033,32.30545 0.0208,5.5353 0.049,11.07035 0.0945,16.6055 0.0437,5.34926 0.0674,10.69828 0.0777,16.04771 0.007,2.03319 0.0217,4.06638 0.0434,6.09947 0.18149,17.70837 -1.96512,30.45005 -14.59089,43.78104 -9.29019,8.78047 -19.87405,13.03428 -32.54941,12.96821 -0.85741,0.004 -1.71482,0.007 -2.59821,0.0106 -2.87471,0.009 -5.74921,0.004 -8.62392,-4.6e-4 -2.08123,0.004 -4.16246,0.008 -6.24368,0.0137 -5.72076,0.0122 -11.44146,0.012 -17.16223,0.01 -6.16921,-4.1e-4 -12.33839,0.0106 -18.50759,0.0201 -12.08728,0.0166 -24.17453,0.0221 -36.26182,0.0232 -9.8243,9.2e-4 -19.6486,0.005 -29.4729,0.0114 -2.82839,0.002 -5.65677,0.004 -8.48516,0.005 -0.70315,4.4e-4 -1.40631,8.8e-4 -2.13077,10e-4 -19.7776,0.0123 -39.55519,0.0202 -59.3328,0.0193 -0.7456,-3e-5 -1.49121,-6e-5 -2.2594,-9e-5 -3.779,-1.7e-4 -7.55799,-3.7e-4 -11.33699,-5.7e-4 -0.75051,-4e-5 -1.50103,-8e-5 -2.27428,-1.2e-4 -1.51773,-8e-5 -3.03545,-1.7e-4 -4.55318,-2.5e-4 -23.61172,-0.001 -47.22339,0.0138 -70.8351,0.0411 -26.53089,0.0307 -53.06175,0.0479 -79.59267,0.0461 -2.82964,-1.5e-4 -5.65928,-2.5e-4 -8.48893,-3.1e-4 -0.69672,-3e-5 -1.39344,-5e-5 -2.11128,-7e-5 -11.2066,-7e-5 -22.413155,0.0127 -33.619743,0.0299 -11.265283,0.017 -22.530493,0.0186 -33.795788,0.006 -6.10158,-0.007 -12.202979,-0.007 -18.304542,0.0107 -5.587451,0.0157 -11.174577,0.0129 -16.76202,-0.005 -2.01949,-0.003 -4.039004,5.8e-4 -6.0584656,0.0117 -17.0638958,0.0879 -29.6532164,-2.82642 -42.5883374,-14.56948 -8.171634,-8.42594 -12.998887,-19.67361 -13.017034,-31.36592 -0.0024,-0.64598 -0.0047,-1.29195 -0.0071,-1.95751 -0.0067,-2.1735 -0.0062,-4.34694 -0.0058,-6.52044 -0.0033,-1.57058 -0.007,-3.14115 -0.01114,-4.71173 -0.01002,-4.32319 -0.01374,-8.64638 -0.01639,-12.96958 -0.0039,-4.66006 -0.01348,-9.32011 -0.02221,-13.98016 -0.01977,-11.25841 -0.02983,-22.51682 -0.03873,-33.77523 -0.0044,-5.30221 -0.0097,-10.60441 -0.01499,-15.90661 -0.01701,-17.62695 -0.03151,-35.2539 -0.03875,-52.88085 -0.0019,-4.57466 -0.0038,-9.14931 -0.0058,-13.72396 -4.84e-4,-1.13701 -9.67e-4,-2.27402 -0.0015,-3.44547 -0.0083,-18.41481 -0.03363,-36.82955 -0.06611,-55.24432 -0.03308,-18.90756 -0.05108,-37.81508 -0.05428,-56.72266 -0.0022,-10.61525 -0.0109,-21.2304 -0.03646,-31.84563 -0.02172,-9.04144 -0.02975,-18.082768 -0.02003,-27.124235 0.0045,-4.611114 0.0027,-9.221984 -0.01676,-13.833064 -0.01766,-4.226972 -0.01661,-8.453525 -0.0011,-12.680503 0.0024,-1.523642 -0.0019,-3.047313 -0.01383,-4.570911 -0.09783,-13.35848 2.32356,-23.94555 10.505211,-34.682626 0.7425,-1.03125 1.485,-2.0625 2.25,-3.125 C -26.200642,4.604244 -14.188311,-0.0267498 0,0 Z"
       fill="#fefefe"
       transform="translate(98.403229,-0.13422108)"
       id="path1" />
    <path
       d="M 0,0 2.5689384,-0.00712797 C 5.4227927,-0.01380944 8.2766013,-0.01336 11.130463,-0.01294994 c 2.061576,-0.0032992 4.123151,-0.0070248 6.184725,-0.01114148 5.675795,-0.01002226 11.351579,-0.01373716 17.027382,-0.01638931 6.117468,-0.0039024 12.234928,-0.01348077 18.352392,-0.02221287 14.080372,-0.0188319 28.160743,-0.02902078 42.241125,-0.03746068 6.959663,-0.004208 13.919313,-0.00943 20.878973,-0.0146845 23.82856,-0.0178901 47.65711,-0.0328854 71.48568,-0.0403202 1.49578,-4.7475e-4 2.99157,-9.5064e-4 4.48735,-0.001428 l 2.24778,-7.1629e-4 c 3.75809,-0.001201 7.51619,-0.002417 11.27428,-0.003642 l 2.26001,-7.2773e-4 c 24.17514,-0.007891 48.35024,-0.0313192 72.52537,-0.0638282 25.56531,-0.0343156 51.1306,-0.0540109 76.69593,-0.0573024 2.80781,-4.1753e-4 5.61561,-8.9709e-4 8.42341,-0.001423 l 2.095,-3.7331e-4 c 11.1152,-0.00233 22.23034,-0.0179783 33.34552,-0.0384685 11.17818,-0.0202791 22.35629,-0.0253926 33.53449,-0.0162294 6.05322,0.004546 12.10624,0.002638 18.15943,-0.0167614 5.54569,-0.0176198 11.09105,-0.0166433 16.63674,-0.001103 2.0021,0.002378 4.00421,-0.001957 6.00627,-0.0138286 14.91628,-0.0829463 27.41197,0.94764769 39.60445,10.50521181 l 1.89453,1.402344 c 8.10456,6.374175 14.05368,16.480416 16.10547,26.597656 0.0895,2.107632 0.12197,4.217922 0.12026,6.327454 l 0.004,3.943268 c -0.004,1.440033 -0.007,2.880066 -0.0109,4.320098 -2.9e-4,1.517812 -1.3e-4,3.035625 4.4e-4,4.553437 2.9e-4,4.119478 -0.006,8.238927 -0.0126,12.358399 -0.006,4.305489 -0.007,8.610979 -0.008,12.916472 -0.003,8.152629 -0.0113,16.305245 -0.0214,24.457871 -0.0112,9.28165 -0.0167,18.56331 -0.0217,27.84497 -0.0104,19.09268 -0.028,38.18536 -0.0503,57.27803 -4.2699,-4.2614 -8.43535,-8.60096 -12.5625,-13 l -1.99805,-2.11719 -1.94336,-2.07031 -1.74438,-1.85547 -1.75171,-1.95703 -2.07933,-1.93024 c -2.87952,-4.60227 -2.46034,-8.81736 -2.40309,-14.143 l -0.0119,-3.38693 c -0.006,-2.42537 -0.003,-4.85077 0.008,-7.27612 0.0172,-3.84249 0.01,-7.68422 -0.004,-11.52671 -0.0275,-8.85458 -0.0183,-17.70898 -0.007,-26.56358 0.0105,-8.753852 0.005,-17.507288 -0.0267,-26.261104 -0.007,-3.778496 0.01,-7.556411 0.0271,-11.334861 -0.006,-2.328881 -0.0125,-4.65776 -0.0206,-6.986634 l 0.0343,-3.165069 c -0.0757,-9.139836 -2.60653,-15.460181 -8.51671,-22.425751 v -2 l -1.76953,-0.875 c -1.36244,-0.687184 -2.71662,-1.391497 -4.05469,-2.125 l -1.86328,-1 -1.82422,-1 c -6.45774,-2.595264 -13.03658,-3.295911 -19.93918,-3.251682 l -2.43727,-0.0088 c -2.682,-0.0073 -5.36377,-3.7e-4 -8.04577,0.0065 -1.94755,-0.0023 -3.8951,-0.0055 -5.84264,-0.0095 -5.34193,-0.0083 -10.68378,-0.0042 -16.02571,0.002 -5.76492,0.0045 -11.52982,-0.0025 -17.29474,-0.008 -11.2899,-0.0089 -22.57978,-0.007 -33.86968,-0.0012 -9.1759,0.0045 -18.3518,0.0051 -27.52771,0.003 l -3.95716,-9.29e-4 c -2.65283,-6.4e-4 -5.30566,-0.0013 -7.9585,-0.0019 -24.16871,-0.0057 -48.33741,2.06e-4 -72.50611,0.01068 -22.05456,0.0095 -44.10909,0.0086 -66.16364,-9.22e-4 -24.78726,-0.01071 -49.5745,-0.01492 -74.36176,-0.0088 -2.64339,6.38e-4 -5.28678,0.0013 -7.93018,0.0019 l -3.9412,9.35e-4 c -9.16412,0.0017 -18.32823,-0.0012 -27.49234,-0.0059 -11.169155,-0.0056 -22.338283,-0.0041 -33.507435,0.0066 -5.698392,0.0053 -11.396737,0.0073 -17.095129,7.02e-4 -5.217773,-0.006 -10.435455,-0.0027 -15.65322,0.008 -1.886167,0.0022 -3.772342,0.0011 -5.658505,-0.0038 -19.3031093,-0.172589 -19.3031093,-0.172589 -36.2804,8.261124 -9.528164,9.889231 -10.146912,21.01602 -10.158218,34.003159 l -0.01496,3.656198 c -0.01267,3.336256 -0.02098,6.672471 -0.02743,10.008741 -0.008,3.602513 -0.02172,7.205005 -0.03471,10.807503 -0.02173,6.237364 -0.03989,12.47473 -0.0556,18.71211 -0.02273,9.01816 -0.05087,18.03629 -0.08032,27.05442 -0.04763,14.63209 -0.09091,29.26419 -0.13144,43.8963 -0.03938,14.21192 -0.08081,28.42383 -0.125,42.63574 l -0.0083,2.65557 c -0.01368,4.39642 -0.0274,8.79284 -0.04114,13.18927 -0.113898,36.46031 -0.220722,72.92064 -0.322919,109.38099 3.981762,0.022 7.963508,0.0352 11.945313,0.0469 l 3.3879392,0.019 c 16.7975423,0.0369 31.9929538,-1.58632 45.6667478,-12.06592 l 3.097656,-2.33984 c 26.241348,-20.5554 36.501479,-56.76251 48.62436,-86.57608 11.521637,-28.32058 11.521637,-28.32058 17.40719,-41.92014 0.60923,-1.41256 1.21312,-2.82744 1.81092,-4.24487 6.23914,-14.76025 13.85119,-26.6652 28.62237,-33.79407 9.17368,-3.56304 18.59529,-3.57266 27.8125,-0.125 15.46547,7.43173 23.09446,22.45554 28.625,38 3.24991,10.12546 5.93377,20.43657 8.38672,30.78125 2.86158,12.05058 6.25484,23.82977 10.11328,35.59375 l 0.68933,2.14038 c 4.17306,12.89771 9.13985,24.70408 20.81067,32.48462 3.46537,0.13328 5.87924,-0.14522 8.69531,-2.29297 3.86764,-4.07451 6.64553,-8.81781 9.375,-13.69531 l 1.17249,-2.09067 c 5.57735,-10.07007 10.55455,-20.45635 15.60046,-30.79947 20.88228,-42.7307 20.88228,-42.7307 39.73487,-51.42627 9.22381,-2.64812 19.04188,-1.0948 27.42187,3.30469 6.86215,4.3454 13.00115,9.54641 19,15 6.72176,-5.56688 12.7671,-11.70851 18.88477,-17.92383 l 2.42382,-2.44726 2.15015,-2.18531 c 2.07591,-1.99613 4.18398,-3.88521 6.36182,-5.76635 4.08802,-3.5509 7.92978,-7.29904 11.74194,-11.14209 l 2.05078,-2.05507 c 2.1313,-2.13683 4.25906,-4.27714 6.38672,-6.41759 1.4568,-1.46182 2.91383,-2.92341 4.37109,-4.38476 3.54565,-3.55659 7.08814,-7.1163 10.62891,-10.67774 -1.07625,-2.77485 -2.18074,-5.32672 -3.625,-7.9375 -2.68456,-6.2915 -2.44772,-14.26673 -0.61328,-20.75781 0.94875,-2.21251 2.00303,-4.24023 3.23828,-6.30469 l 1.8125,-3.1875 c 6.33416,-8.14392 14.63506,-12.67372 24.93359,-14.22656 9.70987,-0.33326 17.78871,3.41097 25.25391,9.41406 7.45922,7.06919 9.8464,15.11546 10.375,25.1875 0,5.61805 -1.77307,9.54607 -4.47656,14.40234 -1.14111,2.32722 -1.14111,2.32722 -0.3086,4.42969 1.71701,2.41142 3.58665,4.55678 5.59766,6.73047 2.78343,3.03607 5.55361,6.07381 8.25,9.1875 3.65308,4.19553 7.40756,8.29624 11.15625,12.40625 2.55774,2.82348 5.06395,5.68681 7.5625,8.5625 2.25252,2.55794 4.54692,5.07554 6.84375,7.59375 3.42523,3.75538 6.80288,7.54303 10.13281,11.38281 3.2192,3.65023 6.52914,7.21882 9.82813,10.79688 2.03906,2.32031 2.03906,2.32031 3.03906,4.32031 l 3.75,-1 c 9.28064,-2.00741 17.12117,-1.62664 25.875,2.125 2.57872,1.10547 2.57872,1.10547 6.375,0.875 1.858,-1.39772 1.858,-1.39772 3.53906,-3.36719 l 1.99634,-2.17041 2.0896,-2.3374 c 1.42652,-1.56941 2.8549,-3.13712 4.28516,-4.70312 l 2.10595,-2.31055 c 3.28599,-3.49707 6.8404,-6.68475 10.45655,-9.83789 1.87383,-2.28764 1.87383,-2.28764 1.29687,-5.66016 l -0.76953,-3.61328 c -0.92982,-10.56013 0.80197,-19.7252 7.25,-28.375 7.34914,-7.01509 15.31956,-11.65331 25.5625,-12.0625 9.58241,0.27793 18.31699,3.68295 25.1875,10.4375 5.39716,6.16513 8.3166,11.82408 9,20 l 0.24609,2.75781 c 0.42404,9.22607 -2.75747,16.14687 -8.41015,23.32032 -5.88308,6.15845 -12.83868,10.44908 -21.38672,11.25781 -6.97884,0.0725 -12.50225,0.0235 -18.61719,-3.5586 -2.51037,-1.06516 -3.27606,-0.77848 -5.83203,0.22266 -2.14382,1.75723 -4.12517,3.5141 -6.11328,5.43359 l -1.73882,1.67263 c -1.20868,1.17162 -2.41292,2.34785 -3.61299,3.5283 -1.83508,1.79094 -3.70393,3.54101 -5.57592,5.29322 -6.1019,5.531 -6.1019,5.531 -9.52686,12.729 0.21092,2.46192 0.21092,2.46192 0.95288,4.854 0.73959,2.99359 0.26171,5.15896 -0.18188,8.19629 -0.0519,6.23652 2.65255,9.26571 6.78125,13.55469 2.53778,2.53163 5.1461,4.9793 7.76562,7.42578 1.31768,1.28317 2.63281,2.56896 3.94531,3.85742 1.26073,1.22048 2.52367,2.43866 3.78907,3.6543 l 1.79339,1.72624 c 2.8203,2.62647 4.86875,4.52397 8.72223,5.07454 2.68364,-0.98418 2.68364,-0.98418 5.5,-2.4375 8.35874,-3.636 15.59896,-3.76549 24.25,-0.9375 9.23422,3.82106 15.51023,9.51255 20.25,18.375 1.1809,3.33276 1.70607,6.48354 2,10 l 0.24609,2.75781 c 0.42404,9.22607 -2.75747,16.14687 -8.41015,23.32032 -5.88308,6.15845 -12.83868,10.44908 -21.38672,11.25781 -7.74863,0.0805 -13.84404,-0.0961 -20.44922,-4.33594 l -2.33203,-1.47266 c -7.64417,-5.36233 -12.20317,-12.55003 -14.66797,-21.52734 -0.23047,-3.25391 -0.23047,-3.25391 -0.1875,-6.5625 l 0.0195,-3.31641 c 0.16797,-3.12109 0.16797,-3.12109 0.91455,-5.54125 0.54059,-2.66521 0.54059,-2.66521 -1.25024,-4.78052 l -2.27368,-2.19776 -2.49805,-2.45312 -2.66211,-2.52344 -2.55664,-2.5 c -8.77604,-8.63569 -8.77604,-8.63569 -18.50586,-16.125 l -2.30078,1.27734 -3.01172,1.66016 -2.98828,1.65234 c -6.88695,3.59796 -15.8689,3.58243 -23.37109,1.76172 -2.2776,-0.94496 -4.25338,-2.01977 -6.32813,-3.35156 l -2.33203,-1.47266 c -7.66836,-5.37929 -12.15517,-12.54492 -14.66797,-21.52734 -0.80227,-7.435 -0.50791,-13.57967 3.32031,-20.09766 0.8799,-1.88123 0.8799,-1.88123 0.15235,-3.75781 -2.10374,-3.06353 -4.60601,-5.70949 -7.16016,-8.39453 -1.09451,-1.16725 -2.18827,-2.33522 -3.28125,-3.50391 l -1.59375,-1.6997 c -2.3062,-2.4809 -4.52142,-5.03677 -6.73828,-7.59717 -3.51327,-4.03016 -7.11605,-7.98128 -10.69922,-11.94922 -8.5686,-9.48872 -8.5686,-9.48872 -12.4375,-13.9375 -2.81072,-3.22809 -5.6783,-6.39988 -8.5625,-9.5625 -6.67442,-7.33575 -6.67442,-7.33575 -9,-9.9375 l -1.625,-1.80859 c -1.43304,-1.82795 -2.41141,-3.64606 -3.375,-5.75391 l -2.0625,0.49219 c -3.36027,0.5809 -6.528,0.64016 -9.9375,0.63281 l -3.625,0.008 c -3.375,-0.13281 -3.375,-0.13281 -5.6718,-1.01268 -2.99767,-0.42375 -2.99767,-0.42375 -5.81009,2.26523 -1.18854,1.17111 -2.36051,2.35917 -3.51933,3.55971 l -1.95293,1.95027 c -2.13007,2.13426 -4.23809,4.28899 -6.34663,6.4445 -1.47128,1.48247 -2.94389,2.96362 -4.41777,4.4435 -3.87835,3.90128 -7.73835,7.82024 -11.59486,11.74309 -3.93739,3.99872 -7.89178,7.98055 -11.84479,11.96381 -7.75572,7.82009 -15.49217,15.65896 -23.2168,23.50976 1.29697,2.64556 2.62819,5.00559 4.39844,7.36328 l 1.43384,1.91455 1.54272,2.03467 1.61109,2.13623 c 4.58426,6.04802 9.30408,11.98083 14.0686,17.88721 2.91188,3.6115 5.77536,7.25945 8.63281,10.91406 6.92359,8.83062 13.95395,17.4981 21.5625,25.75391 1.75,1.99609 1.75,1.99609 2.75,3.99609 2.74338,-0.61967 4.88502,-1.3951 7.5,-2.5625 8.34729,-3.1283 16.87583,-2.0363 24.96875,1.3125 8.46068,4.17812 15.19851,10.6665 18.41016,19.73047 0.57348,2.52252 0.90565,4.94209 1.12109,7.51953 l 0.24609,2.75781 c 0.42404,9.22607 -2.75747,16.14687 -8.41015,23.32032 -5.88308,6.15845 -12.83868,10.44908 -21.38672,11.25781 -7.74863,0.0805 -13.84404,-0.0961 -20.44922,-4.33594 l -2.33203,-1.47266 c -7.64579,-5.36346 -12.19994,-12.54962 -14.66797,-21.52734 -0.23047,-3.21875 -0.23047,-3.21875 -0.1875,-6.5 l 0.0195,-3.28125 c 0.16797,-3.21875 0.16797,-3.21875 0.95313,-6.30078 0.5278,-3.03872 0.5278,-3.03872 -1.5586,-5.52344 l -2.60156,-2.58203 c -0.94113,-0.96649 -1.87988,-1.9353 -2.81641,-2.90625 l -1.44189,-1.47266 c -3.72143,-3.90357 -6.98601,-8.23706 -10.3667,-12.43359 -1.03294,-1.26507 -2.06686,-2.52934 -3.10156,-3.79297 -7.61565,-9.31077 -14.99979,-18.76651 -22.28125,-28.33984 -17.66729,-26.11498 -15.47407,-34.45566 -35.64474,-47.41145 -2.54001,-1.63147 -7.73108,-3.42207 -10.91581,-5.43816 -5.83498,1.0099 -11.24893,10.65848 -14.79126,15.2124 -4.07224,5.8019 -7.55665,11.70415 -10.76538,18.02002 l -1.51709,2.93775 c -2.97005,5.77831 -5.86974,11.5898 -8.74072,17.41772 -20.61815,41.81736 -20.61815,41.81736 -32.92969,49.26953 l -2.82422,1.74219 c -6.40702,3.56057 -14.17591,3.35278 -21.21484,1.76953 -6.62273,-2.38629 -12.27003,-6.46417 -17.27344,-11.38672 l -1,-3 h -2 c -9.4431,-10.78168 -13.91063,-24.88329 -18.125,-38.3125 -0.44175,-1.38894 -0.88356,-2.77785 -1.32544,-4.16675 -2.64525,-8.36795 -5.02058,-16.73857 -7.01294,-25.28882 -6.53052,-29.88147 -1.71537,-32.28905 -16.97147,-58.20201 -5.17371,-2.70444 -15.35481,0.28998 -20.81515,1.97008 -7.13066,5.18594 -10.65644,13.34908 -14.1875,21.1875 l -1.54175,3.37915 c -5.05693,11.23788 -9.64232,22.66284 -14.23022,34.09815 -39.325494,97.9546 -39.325494,97.9546 -78.185057,116.24145 -10.410523,4.37024 -20.035899,6.26906 -31.2617188,6.19141 l -2.38708492,-0.004 c -2.48559568,-0.006 -4.97109718,-0.0181 -7.45666508,-0.0309 -1.6979153,-0.005 -3.3958322,-0.01 -5.0937502,-0.0137 -4.135452,-0.0109 -8.270835,-0.0282 -12.40625,-0.0488 0.0696,4.64121 0.157907,9.28157 0.262451,13.92212 0.03295,1.5738 0.06107,3.1477 0.08399,4.72168 0.269433,18.69123 0.269433,18.69123 9.653564,34.3562 7.2450506,6.60005 14.73961225,9.46803 24.449994,9.38032 l 2.473802,0.0141 c 2.729124,0.0119 5.457748,0.003 8.186876,-0.007 1.978972,0.004 3.957942,0.01 5.936907,0.0163 5.433492,0.0145 10.866832,0.0102 16.300332,0.003 5.861761,-0.005 11.72349,0.008 17.58524,0.018 11.482221,0.0172 22.964387,0.018 34.446618,0.0128 9.332772,-0.004 18.665522,-0.003 27.998292,0.003 l 4.02398,0.002 6.06394,0.003 c 18.79128,0.0107 37.58255,0.0154 56.37382,0.008 l 2.14627,-9e-4 c 5.75147,-0.002 11.50295,-0.005 17.25442,-0.008 22.43037,-0.0101 44.86065,-0.002 67.29101,0.0215 25.2077,0.0261 50.41536,0.0389 75.62307,0.0318 2.68864,-7.2e-4 5.37728,-0.001 8.06593,-0.002 l 2.00605,-5.2e-4 c 9.98699,-0.002 19.97392,0.006 29.9609,0.0188 11.36058,0.0147 22.72106,0.0154 34.08164,-0.002 5.79577,-0.009 11.59136,-0.0106 17.38712,0.005 5.30801,0.0138 10.61567,0.009 15.92366,-0.0102 1.91784,-0.004 3.83571,-8.2e-4 5.75353,0.01 12.64722,0.0639 23.67615,-0.47821 33.94785,-8.81344 8.67087,-8.59205 9.83915,-19.85193 9.92407,-31.48413 l 0.03,-2.5745 c 0.0314,-2.78642 0.0563,-5.57286 0.0811,-8.35934 0.0206,-1.94056 0.0416,-3.88112 0.063,-5.82167 0.055,-5.09131 0.10452,-10.18266 0.15285,-15.27404 0.0504,-5.20185 0.10597,-10.40366 0.16113,-15.60546 0.10734,-10.19462 0.20884,-20.38928 0.30664,-30.58399 3.84971,1.89426 7.43746,4.09347 11.07422,6.36719 2.50796,1.39964 4.98352,2.58078 7.60864,3.73486 l 2.45125,1.08035 1.86589,0.8176 c 0.093,12.04876 0.16391,24.09744 0.20725,36.14649 0.0208,5.59583 0.049,11.19142 0.0945,16.7871 0.0437,5.40762 0.0674,10.815 0.0777,16.22278 0.007,2.05552 0.0217,4.11103 0.0434,6.16645 0.18026,17.78308 -1.90752,30.57443 -14.59089,43.96624 -9.29019,8.78047 -19.87405,13.03428 -32.54941,12.96821 l -2.59821,0.0106 c -2.87471,0.009 -5.74921,0.004 -8.62392,-4.6e-4 -2.08123,0.004 -4.16246,0.008 -6.24368,0.0137 -5.72076,0.0122 -11.44146,0.012 -17.16223,0.01 -6.16921,-4.1e-4 -12.33839,0.0106 -18.50759,0.0201 -12.08728,0.0166 -24.17453,0.0221 -36.26182,0.0232 -9.8243,9.2e-4 -19.6486,0.005 -29.4729,0.0114 -2.82839,0.002 -5.65677,0.004 -8.48516,0.005 l -2.13077,10e-4 c -19.7776,0.0123 -39.55519,0.0202 -59.3328,0.0193 l -2.2594,-9e-5 c -3.779,-1.7e-4 -7.55799,-3.7e-4 -11.33699,-5.7e-4 l -2.27428,-1.2e-4 c -1.51773,-8e-5 -3.03545,-1.7e-4 -4.55318,-2.5e-4 -23.61172,-0.001 -47.22339,0.0138 -70.8351,0.0411 -26.53089,0.0307 -53.06175,0.0479 -79.59267,0.0461 -2.82964,-1.5e-4 -5.65928,-2.5e-4 -8.48893,-3.1e-4 l -2.11128,-7e-5 c -11.2066,-7e-5 -22.413157,0.0127 -33.619745,0.0299 -11.265283,0.017 -22.530493,0.0186 -33.795788,0.006 -6.10158,-0.007 -12.202979,-0.007 -18.304542,0.0107 -5.587451,0.0157 -11.174577,0.0129 -16.76202,-0.005 -2.01949,-0.003 -4.039004,5.8e-4 -6.0584656,0.0117 -17.0638958,0.0879 -29.6532164,-2.82642 -42.5883374,-14.56948 -8.171634,-8.42594 -12.998887,-19.67361 -13.017034,-31.36592 l -0.0071,-1.95751 c -0.0067,-2.1735 -0.0062,-4.34694 -0.0058,-6.52044 -0.0033,-1.57058 -0.007,-3.14115 -0.01114,-4.71173 -0.01002,-4.32319 -0.01374,-8.64638 -0.01639,-12.96958 -0.0039,-4.66006 -0.01348,-9.32011 -0.02221,-13.98016 -0.01977,-11.25841 -0.02983,-22.51682 -0.03873,-33.77523 -0.0044,-5.30221 -0.0097,-10.60441 -0.01499,-15.90661 -0.01701,-17.62695 -0.03151,-35.2539 -0.03875,-52.88085 -0.0019,-4.57466 -0.0038,-9.14931 -0.0058,-13.72396 l -0.0015,-3.44547 c -0.0083,-18.41481 -0.03363,-36.82955 -0.06611,-55.24432 -0.03308,-18.90756 -0.05108,-37.81508 -0.05428,-56.72266 -0.0022,-10.61525 -0.0109,-21.2304 -0.03646,-31.84563 -0.02172,-9.04144 -0.02975,-18.08277 -0.02003,-27.124237 0.0045,-4.611114 0.0027,-9.221984 -0.01676,-13.833064 -0.01766,-4.226972 -0.01661,-8.453525 -0.0011,-12.680503 0.0024,-1.523642 -0.0019,-3.047313 -0.01383,-4.570911 -0.09783,-13.35848 2.32356,-23.94555 10.505211,-34.682626 l 2.25,-3.125 C -26.200642,4.604244 -14.188311,-0.0267498 0,0 Z"
       fill="#000000"
       id="path2"
       transform="translate(98.403229,-0.13422108)" />
    <path
       d="m 0,0 c 8.503612,5.3183125 13.861258,11.562221 16.335937,21.460937 0.85618,8.904271 0.658031,14.851548 -3.789062,22.839844 -1.141104,2.327219 -1.141104,2.327219 -0.308594,4.429688 1.717008,2.411421 3.586645,4.556777 5.597656,6.730468 2.783434,3.03607 5.553609,6.07381 8.25,9.1875 3.65308,4.195533 7.407556,8.296236 11.15625,12.40625 2.557738,2.823477 5.06395,5.686811 7.5625,8.5625 2.252515,2.557941 4.546921,5.07554 6.84375,7.59375 3.425232,3.755375 6.802879,7.543033 10.132813,11.382813 3.2192,3.65022 6.529138,7.21882 9.828125,10.79688 2.039062,2.32031 2.039062,2.32031 3.039062,4.32031 l 3.75,-1 c 9.280638,-2.00741 17.121165,-1.62665 25.875003,2.125 2.57872,1.10547 2.57872,1.10547 6.375,0.875 1.858,-1.39773 1.858,-1.39773 3.53906,-3.36719 l 1.99634,-2.17041 2.0896,-2.3374 c 1.42651,-1.56941 2.8549,-3.13713 4.28515,-4.70313 l 2.10596,-2.31054 c 3.28598,-3.49707 6.8404,-6.68476 10.45654,-9.837895 1.87384,-2.287635 1.87384,-2.287635 1.29688,-5.660156 l -0.76953,-3.613282 c -0.92983,-10.560129 0.80197,-19.725204 7.25,-28.375 7.34914,-7.015088 15.31956,-11.65331 25.5625,-12.0625 9.5824,0.277927 18.31698,3.682946 25.1875,10.4375 5.39715,6.165131 8.3166,11.824076 9,20 l 0.24609,2.757813 c 0.42404,9.226062 -2.75748,16.146864 -8.41016,23.32031 -5.88307,6.15846 -12.83868,10.44909 -21.38671,11.25782 -6.97884,0.0725 -12.50225,0.0235 -18.61719,-3.5586 -2.51037,-1.06517 -3.27606,-0.77849 -5.83203,0.22266 -2.14382,1.75723 -4.12517,3.51409 -6.11328,5.43359 l -1.73882,1.67262 c -1.20869,1.17163 -2.41292,2.34786 -3.61299,3.52831 -1.83508,1.79094 -3.70393,3.54101 -5.57593,5.29321 -6.10189,5.53101 -6.10189,5.53101 -9.52685,12.72901 0.21092,2.46191 0.21092,2.46191 0.95288,4.854 0.73959,2.99359 0.26171,5.15895 -0.18189,8.19629 -0.0519,6.23652 2.65256,9.26571 6.78125,13.55469 2.53778,2.53163 5.14611,4.9793 7.76563,7.42578 1.31768,1.28316 2.63281,2.56895 3.94531,3.85742 1.26072,1.22048 2.52367,2.43866 3.78906,3.6543 l 1.7934,1.72624 c 2.82029,2.62646 4.86875,4.52397 8.72223,5.07454 2.68363,-0.98418 2.68363,-0.98418 5.5,-2.4375 8.35874,-3.636 15.59896,-3.7655 24.25,-0.9375 9.23422,3.82105 15.51023,9.51255 20.25,18.375 1.1809,3.33276 1.70607,6.48353 2,10 l 0.24609,2.75781 c 0.42404,9.22606 -2.75748,16.14686 -8.41016,23.32031 -5.88307,6.15846 -12.83868,10.44909 -21.38671,11.25781 -7.74863,0.0805 -13.84405,-0.096 -20.44922,-4.33593 l -2.33203,-1.47266 c -7.64418,-5.36233 -12.20317,-12.55003 -14.66797,-21.52734 -0.23047,-3.25391 -0.23047,-3.25391 -0.1875,-6.5625 l 0.0195,-3.31641 c 0.16797,-3.12109 0.16797,-3.12109 0.91455,-5.54126 0.54058,-2.6652 0.54058,-2.6652 -1.25024,-4.78052 l -2.27369,-2.19775 -2.49804,-2.45313 -2.66211,-2.52343 -2.55664,-2.5 c -8.77604,-8.63569 -8.77604,-8.63569 -18.50586,-16.125 l -2.30078,1.27734 -3.01172,1.66016 -2.98828,1.65234 c -6.886953,3.59796 -15.8689,3.58243 -23.371098,1.76172 -2.277593,-0.94496 -4.253379,-2.01977 -6.328125,-3.35156 l -2.332031,-1.47266 c -7.668361,-5.3793 -12.155165,-12.54492 -14.667969,-21.52734 -0.80227,-7.435 -0.507907,-13.57968 3.320313,-20.09766 0.879901,-1.88123 0.879901,-1.88123 0.152344,-3.75781 -2.103738,-3.06354 -4.606003,-5.7095 -7.160157,-8.39453 -1.094513,-1.16726 -2.188267,-2.33522 -3.28125,-3.50391 l -1.59375,-1.69971 c -2.306206,-2.48089 -4.521416,-5.03677 -6.738281,-7.59716 -3.513265,-4.03016 -7.116049,-7.98128 -10.699219,-11.94922 -8.568602,-9.488723 -8.568602,-9.488723 -12.4375,-13.937503 -2.810725,-3.228095 -5.678299,-6.399884 -8.5624995,-9.5625 -6.6744186,-7.335755 -6.6744186,-7.335755 -9,-9.9375 l -1.625,-1.808593 c -1.4330428,-1.827944 -2.4114101,-3.646054 -3.375,-5.753907 l -2.0625,0.492188 c -3.36027,0.580898 -6.5280025,0.640161 -9.9374995,0.632812 l -3.625,0.0078 c -3.375,-0.132813 -3.375,-0.132813 -5.671799,-1.01268 -2.997678,-0.423753 -2.997678,-0.423753 -5.810089,2.265228 -1.188546,1.171109 -2.360518,2.359173 -3.519333,3.559708 l -1.952927,1.950271 c -2.13007,2.134256 -4.238098,4.288988 -6.346634,6.444504 -1.471279,1.482468 -2.943887,2.963618 -4.41777,4.443497 -3.878352,3.901277 -7.738353,7.820235 -11.594864,11.743088 -3.937381,3.998724 -7.891773,7.980547 -11.844788,11.963807 -7.755719,7.8201 -15.492165,15.65897 -23.216796,23.50977 1.296968,2.64556 2.628192,5.00558 4.398437,7.36328 l 1.433838,1.91455 1.542725,2.03467 1.611083,2.13623 c 4.584266,6.04802 9.304089,11.98083 14.068604,17.8872 2.911878,3.6115 5.775362,7.25946 8.632813,10.91407 6.923586,8.83061 13.953946,17.4981 21.5625,25.7539 1.75,1.9961 1.75,1.9961 2.75,3.9961 2.743377,-0.61967 4.885021,-1.3951 7.5,-2.5625 8.34729,-3.1283 16.875825,-2.0363 24.9687495,1.3125 8.4606818,4.17811 15.198513,10.6665 18.4101565,19.73047 0.573483,2.52252 0.905654,4.94209 1.121094,7.51953 l 0.246093,2.75781 c 0.424039,9.22606 -2.757479,16.14686 -8.410156,23.32031 -5.88307799,6.15846 -12.8386812,10.44909 -21.386719,11.25781 -7.748626,0.0805 -13.844044,-0.096 -20.449218,-4.33593 l -2.332032,-1.47266 c -7.645785,-5.36346 -12.199944,-12.54962 -14.667968,-21.52734 -0.230469,-3.21875 -0.230469,-3.21875 -0.1875,-6.5 l 0.01953,-3.28125 c 0.167969,-3.21875 0.167969,-3.21875 0.953125,-6.30078 0.527804,-3.03872 0.527804,-3.03872 -1.558594,-5.52344 l -2.601562,-2.58203 c -0.94113,-0.96649 -1.879883,-1.9353 -2.816407,-2.90625 l -1.441894,-1.47266 c -3.72143,-3.90358 -6.986013,-8.23706 -10.366699,-12.43359 -1.032943,-1.26507 -2.066857,-2.52935 -3.101563,-3.79297 -7.61565,-9.31077 -14.999785,-18.76651 -22.28125,-28.33985 -19.892064,-29.40354 -39.000754,-50.94425 -48.367184,-47.42968 -5.83498,1.0099 -9.44229,5.23856 -12.98462,9.79248 -4.07225,5.8019 -7.55665,11.70415 -10.76538,18.02002 l -1.51709,2.93774 c -2.97005,5.77832 -5.86974,11.5898 -8.74072,17.41773 -20.61815,41.81735 -20.61815,41.81735 -32.92969,49.26953 l -2.82422,1.74218 c -6.40702,3.56058 -14.17591,3.35279 -21.21484,1.76954 -6.62273,-2.38629 -12.27003,-6.46418 -17.27344,-11.38672 l -1,-3 h -2 c -9.4431,-10.78168 -13.91064,-24.8833 -18.125,-38.3125 -0.44175,-1.38894 -0.88357,-2.77785 -1.32544,-4.16675 -2.64525,-8.36796 -5.02059,-16.73857 -7.01294,-25.28882 -5.48282,-25.08753 -12.54602,-51.634481 -21.78662,-55.794436 -5.17371,-2.704439 -10.53966,-2.117604 -16,-0.4375 -7.13066,5.185936 -10.65644,13.349078 -14.1875,21.1875 l -1.54175,3.379156 c -5.05693,11.23787 -9.64232,22.66284 -14.23023,34.09814 -39.32549,97.9546 -39.32549,97.9546 -78.18505,116.24146 -10.41053,4.37023 -20.0359,6.26905 -31.26172,6.1914 l -2.38709,-0.004 c -2.48559,-0.006 -4.97109,-0.0181 -7.45666,-0.0309 -1.69792,-0.005 -3.39583,-0.01 -5.09375,-0.0137 -4.13545,-0.011 -8.27084,-0.0282 -12.40625,-0.0488 -0.0289,-3.47915 -0.0468,-6.95827 -0.0625,-10.4375 l -0.0254,-3.00977 -0.01,-2.86133 -0.0159,-2.65014 c 0.11353,-2.04126 0.11353,-2.04126 1.11353,-3.04126 1.59382,-0.0632 3.19039,-0.0592 4.78515,-0.0273 l 3.02466,0.042 3.25269,0.0478 c 17.85036,0.11088 34.26518,-0.81764 48.9375,-12.0625 l 3.09765,-2.33985 c 26.24135,-20.5554 36.50148,-56.7625 48.62436,-86.57608 11.52164,-28.32058 11.52164,-28.32058 17.4072,-41.920135 0.60922,-1.412561 1.21311,-2.827438 1.81091,-4.244873 6.23914,-14.760249 13.85119,-26.665194 28.62238,-33.794068 9.17367,-3.563041 18.59529,-3.572659 27.8125,-0.125 15.46547,7.431729 23.09446,22.455536 28.625,38 3.2499,10.125466 5.93376,20.436576 8.38672,30.781256 2.86157,12.05058 6.25483,23.82977 10.11328,35.59375 l 0.68933,2.14038 c 4.17305,12.89771 9.13985,24.70407 20.81067,32.48462 3.46536,0.13328 5.87923,-0.14523 8.69531,-2.29297 3.86764,-4.07451 6.64553,-8.81781 9.375,-13.69531 l 1.17249,-2.09067 c 5.57735,-10.07007 10.55454,-20.45635 15.60046,-30.79947 20.88228,-42.7307 20.88228,-42.7307 39.73486,-51.426273 9.22382,-2.648128 19.04189,-1.094808 27.42188,3.304687 6.86215,4.345406 13.00115,9.546416 19,15.000006 6.72176,-5.56688 12.767096,-11.708519 18.884762,-17.923834 l 2.423828,-2.447265 2.150147,-2.185303 c 2.075906,-1.996133 4.183982,-3.88521 6.361816,-5.766357 4.088017,-3.550893 7.929786,-7.299034 11.741944,-11.14209 l 2.050781,-2.055069 c 2.131295,-2.136831 4.259061,-4.277136 6.386719,-6.417588 1.456797,-1.461821 2.913827,-2.923411 4.371093,-4.384765 3.545646,-3.556588 7.088134,-7.116295 10.628907,-10.677735 -1.076251,-2.774854 -2.18074,-5.32672 -3.625,-7.9375 -2.684557,-6.291498 -2.447719,-14.266726 -0.613282,-20.757812 0.948754,-2.212508 2.003026,-4.24023 3.238282,-6.304687 l 1.8125,-3.1875005 C -32.826028,-4.2504637 -15.350893,-8.4149415 0,0 Z"
       fill="#665685"
       transform="translate(561.35156,115.28906)"
       id="path3"
       style="fill:url(#linearGradient21);fill-opacity:1" />
  </g>
</svg>
